<svg xmlns="http://www.w3.org/2000/svg" viewBox="0 0 65.36 57.75"><defs><style>.cls-1{fill:#1a2229;}.cls-2{fill:#562e53;}.cls-3{fill:#40213e;}.cls-4{fill:#c1707f;}.cls-5{fill:#f25f4b;}.cls-6{fill:#e99789;}.cls-7{fill:#510722;}.cls-8{fill:#6e092e;}.cls-9{fill:none;stroke:#252f39;stroke-miterlimit:10;}.cls-10{fill:#252f39;}.cls-11,.cls-14{fill:#f7d99c;}.cls-11{opacity:0.5;}.cls-12{fill:#00c7b0;}.cls-13{fill:#3a3f45;}.cls-14{opacity:0.3;}.cls-15{fill:#415458;}.cls-16{fill:#f7c459;}.cls-17{fill:#e0503c;}</style></defs><title>Asset 18</title><g id="Layer_2" data-name="Layer 2"><g id="Layer_1-2" data-name="Layer 1"><path class="cls-1" d="M46.14,48.44,46,57.25s-3.64,3.24-11.24-8.91Z"/><path class="cls-2" d="M42.57,48.54l-.15,8.81s-3.64,3.24-11.24-8.91Z"/><path class="cls-2" d="M21.42,18.28a13.1,13.1,0,0,0,13.1,13.1h0a13.1,13.1,0,0,0,13.1-13.1V13.1A13.1,13.1,0,0,0,34.52,0h0a13.1,13.1,0,0,0-13.1,13.1Z"/><path class="cls-3" d="M38.61,19.32V14.14a13.1,13.1,0,0,0-10-12.72,13.08,13.08,0,0,1,19,11.68v5.18A13.05,13.05,0,0,1,31.42,31,13.09,13.09,0,0,0,38.61,19.32Z"/><path class="cls-4" d="M22.45,14.44c.41,2.07,3.2,3,6.24,2.35s5.27-4.6,4.85-6.67-4-1.67-6.92-.67C23.34,10.57,22,12.38,22.45,14.44Z"/><path class="cls-1" d="M23.09,14.28c.26,1.29,2.14,1.82,4.2,1.4s3.62-2.94,3.36-4.23-2.69-1-4.69-.34C23.74,11.85,22.83,13,23.09,14.28Z"/><path class="cls-5" d="M50.79,52.48A2.22,2.22,0,0,0,53,54.7h6.31a2.22,2.22,0,0,0,2.22-2.22h0a2.22,2.22,0,0,0-2.22-2.22H53a2.22,2.22,0,0,0-2.22,2.22Z"/><path class="cls-6" d="M48.42,20.38H34.66A13.59,13.59,0,0,0,21.07,34v4.25A13.59,13.59,0,0,0,34.66,51.8H48.42Z"/><rect class="cls-7" x="48.12" y="11.17" width="15.84" height="41.9" rx="2.04" ry="2.04"/><path class="cls-2" d="M48.42,42V52.45h-14A13.78,13.78,0,0,1,21.09,42Z"/><path class="cls-1" d="M22.51,33.32v4.25c0,7.51,5.76,13.59,12.87,13.59h13V19.74h-13C28.28,19.74,22.51,25.82,22.51,33.32Zm2.62.43c0-6,4.6-10.84,10.27-10.84H45.8V48H35.4c-5.67,0-10.27-4.85-10.27-10.84Z"/><path class="cls-8" d="M58.82,11.17h3.1a2,2,0,0,1,2,2V51a2,2,0,0,1-2,2h-3.1Z"/><rect class="cls-1" x="47.61" y="20.06" width="17.75" height="4.4"/><rect class="cls-1" x="47.61" y="43.38" width="17.75" height="4.4"/><rect class="cls-5" x="10.22" y="24.91" width="28.22" height="6.71" rx="3.23" ry="3.23"/><rect class="cls-9" x="16.52" y="31.33" width="16.16" height="7.29" rx="3.23" ry="3.23"/><path class="cls-10" d="M41.77,27.9v9.65H32.11a3.23,3.23,0,0,0-3.22-3.15H18.8c-1.76,0-3.18-.53-3.22,1.21H7.68V27.9Z"/><rect class="cls-11" x="12.55" y="28.1" width="26.83" height="1.04"/><path class="cls-12" d="M0,33.92a3,3,0,0,0,3.23,2.66H15.49a3,3,0,0,0,3.23-2.66V29.19a3,3,0,0,0-3.23-2.66H3.23A3,3,0,0,0,0,29.19Z"/><rect class="cls-13" x="33.89" y="27.31" width="10.84" height="16.94" rx="3.23" ry="3.23"/><path class="cls-10" d="M41.54,33.79a3.23,3.23,0,0,0-3.23-3.23H33.89v0a3.23,3.23,0,0,1,3.23-3.23h4.37a3.23,3.23,0,0,1,3.23,3.23V41a3.23,3.23,0,0,1-3.19,3.23Z"/><rect class="cls-13" x="15.01" y="29.5" width="2.15" height="3.92"/><rect class="cls-13" x="11.52" y="29.5" width="2.15" height="3.92"/><rect class="cls-13" x="8.03" y="29.5" width="2.15" height="3.92"/><rect class="cls-13" x="4.55" y="29.5" width="2.15" height="3.92"/><rect class="cls-13" x="1.06" y="29.5" width="2.15" height="3.92"/><path class="cls-14" d="M0,31.8V29.22a3,3,0,0,1,3.23-2.7H15.49a3,3,0,0,1,3.23,2.7V31.8Z"/><rect class="cls-15" x="38.51" y="23.42" width="7.47" height="16.01" rx="2.39" ry="2.39"/><path class="cls-16" d="M24.54,34.54H29.2a2.38,2.38,0,0,1,2.38,2.38V42.3a2.39,2.39,0,0,1-2.39,2.39H24.54a2.39,2.39,0,0,1-2.39-2.39V36.92A2.38,2.38,0,0,1,24.54,34.54Z"/><path class="cls-5" d="M27.82,38.08a2.17,2.17,0,0,0-1.5,2.61l2.11,5.09a2.17,2.17,0,0,0,2.91.79L47,40.09a2.17,2.17,0,0,0,1.5-2.61l-2.11-5.09a2.17,2.17,0,0,0-2.91-.79Z"/><path class="cls-17" d="M46.75,36a4.58,4.58,0,0,0,.9-.5l.84,2A2.17,2.17,0,0,1,47,40.09L31.34,46.57a2.17,2.17,0,0,1-2.91-.79l-.79-1.91Z"/><path class="cls-16" d="M8.71,37.68a2.49,2.49,0,0,0,2.49,2.49H17a2.49,2.49,0,0,0,2.49-2.49h0A2.49,2.49,0,0,0,17,35.19H11.2a2.49,2.49,0,0,0-2.49,2.49Z"/></g></g></svg>