<svg xmlns="http://www.w3.org/2000/svg" viewBox="0 0 34.94 53.42"><defs><style>.cls-1{fill:#fff;}.cls-2{fill:#c7dcf2;opacity:0.4;}</style></defs><title>Asset 20</title><g id="Layer_2" data-name="Layer 2"><g id="Layer_1-2" data-name="Layer 1"><circle class="cls-1" cx="18.83" cy="2.4" r="2.4" transform="translate(3.83 14.04) rotate(-45.08)"/><path class="cls-2" d="M17.7.29a2.38,2.38,0,0,1,1.48,4.47A2.39,2.39,0,1,0,17.7.29Z"/><circle class="cls-1" cx="18.77" cy="15.93" r="5.87" transform="translate(-5.76 17.97) rotate(-45.08)"/><path class="cls-2" d="M18.39,10.09a5.84,5.84,0,0,1-1.48,11.38,5.86,5.86,0,1,0,1.48-11.38Z"/><circle class="cls-1" cx="18.41" cy="20.91" r="7.64" transform="translate(-9.4 19.18) rotate(-45.08)"/><circle class="cls-2" cx="18.49" cy="22.26" r="6.63" transform="translate(-10.33 19.64) rotate(-45.08)"/><circle class="cls-1" cx="25.07" cy="31.17" r="9.45" transform="translate(-14.71 26.91) rotate(-45.08)"/><path class="cls-2" d="M18.59,24.34A9.42,9.42,0,0,1,29.92,39.19c-.06.06-.14.11-.2.17a9.42,9.42,0,1,0-11.13-15Z"/><circle class="cls-1" cx="13.62" cy="29.63" r="6.3" transform="translate(-16.98 18.35) rotate(-45.08)"/><circle class="cls-2" cx="13.7" cy="28.24" r="5.13" transform="translate(-15.97 18) rotate(-45.08)"/><circle class="cls-1" cx="16.53" cy="42.17" r="6.3" transform="translate(-12.76 7.62) rotate(-18.89)"/><circle class="cls-1" cx="16.53" cy="42.17" r="6.3" transform="translate(-12.76 7.62) rotate(-18.89)"/><path class="cls-2" d="M18.35,46.43a6.3,6.3,0,0,1-8-3.92c-.05-.15-.07-.3-.1-.45a6.22,6.22,0,0,0,.32,2.15,6.29,6.29,0,0,0,12-3.63A6.28,6.28,0,0,1,18.35,46.43Z"/><circle class="cls-1" cx="21.23" cy="42.2" r="4.33" transform="translate(-12.52 9.15) rotate(-18.89)"/><circle class="cls-2" cx="21.23" cy="42.2" r="4.33" transform="translate(-12.52 9.15) rotate(-18.89)"/><circle class="cls-1" cx="18.45" cy="50.6" r="2.77" transform="translate(-15.39 8.7) rotate(-18.89)"/><path class="cls-2" d="M19.33,52.59a2.72,2.72,0,0,1-3.62-2.17,2.76,2.76,0,1,0,5.48-.22A2.77,2.77,0,0,1,19.33,52.59Z"/><circle class="cls-1" cx="4.08" cy="28.82" r="2.77" transform="translate(-19.21 11.36) rotate(-45.08)"/><path class="cls-2" d="M5.5,26.45a2.44,2.44,0,0,1,.3.24,2.48,2.48,0,1,1-3.58.1l-.09.08a2.81,2.81,0,1,0,3.38-.41Z"/><circle class="cls-1" cx="10.09" cy="47.79" r="2.77" transform="translate(-30.87 21.18) rotate(-45.08)"/><circle class="cls-1" cx="10.01" cy="46.9" r="2.77" transform="translate(-30.27 20.87) rotate(-45.08)"/><circle class="cls-2" cx="10.09" cy="47.56" r="2.77" transform="translate(-30.71 21.12) rotate(-45.08)"/><circle class="cls-1" cx="10.82" cy="23.4" r="6.3" transform="translate(-13.39 14.54) rotate(-45.08)"/><circle class="cls-1" cx="6.3" cy="36.95" r="6.3" transform="translate(-24.31 15.32) rotate(-45.08)"/><circle class="cls-1" cx="27.77" cy="44.3" r="7.02" transform="translate(-12.85 11.38) rotate(-18.89)"/><path class="cls-2" d="M32,38.76a7,7,0,0,1-9.38,10.3A7,7,0,1,0,32,38.76Z"/><circle class="cls-1" cx="18.35" cy="7.64" r="3.67" transform="translate(-0.02 15.24) rotate(-45.08)"/><path class="cls-2" d="M16.62,4.42a3.65,3.65,0,0,1,2.26,6.84,3.66,3.66,0,1,0-2.26-6.84Z"/></g></g></svg>