<svg xmlns="http://www.w3.org/2000/svg" viewBox="0 0 77.96 79.07"><defs><style>.cls-1{fill:#084654;}.cls-2{fill:#f15a24;}.cls-3{fill:#025909;}.cls-4{fill:#ff0;}</style></defs><title>Asset 8</title><g id="Layer_2" data-name="Layer 2"><g id="Layer_1-2" data-name="Layer 1"><polygon class="cls-1" points="74.63 58.56 36.51 79.07 0 58.56 0 4.43 74.63 4.43 74.63 58.56"/><polygon class="cls-2" points="77.96 54.13 39.84 74.63 3.33 54.13 3.33 0 77.96 0 77.96 54.13"/><polygon class="cls-3" points="66.94 49.16 40.07 63.62 14.34 49.16 14.34 11.01 66.94 11.01 66.94 49.16"/><polygon class="cls-1" points="30.3 22.38 35.05 32.01 45.68 33.55 37.99 41.04 39.8 51.62 30.3 46.63 20.8 51.62 22.61 41.04 14.92 33.55 25.55 32.01 30.3 22.38"/><polygon class="cls-4" points="30.62 21.85 35.37 31.48 46 33.02 38.31 40.52 40.13 51.1 30.62 46.1 21.12 51.1 22.93 40.52 15.25 33.02 25.87 31.48 30.62 21.85"/><polygon class="cls-1" points="39.39 14.11 44.14 23.74 54.77 25.28 47.08 32.78 48.89 43.36 39.39 38.36 29.89 43.36 31.7 32.78 24.02 25.28 34.64 23.74 39.39 14.11"/><polygon class="cls-4" points="39.71 13.59 44.47 23.21 55.09 24.76 47.4 32.25 49.22 42.83 39.71 37.84 30.21 42.83 32.03 32.25 24.34 24.76 34.96 23.21 39.71 13.59"/><polygon class="cls-1" points="49.31 22.38 54.06 32.01 64.69 33.55 57 41.04 58.81 51.62 49.31 46.63 39.81 51.62 41.62 41.04 33.93 33.55 44.56 32.01 49.31 22.38"/><polygon class="cls-4" points="49.63 21.85 54.38 31.48 65.01 33.02 57.32 40.52 59.13 51.1 49.63 46.1 40.13 51.1 41.94 40.52 34.26 33.02 44.88 31.48 49.63 21.85"/></g></g></svg>