<svg xmlns="http://www.w3.org/2000/svg" viewBox="0 0 77.96 79.07"><defs><style>.cls-1{fill:#084654;}.cls-2{fill:#ff0;}.cls-3{fill:#025909;}</style></defs><title>Asset 7</title><g id="Layer_2" data-name="Layer 2"><g id="Layer_1-2" data-name="Layer 1"><polygon class="cls-1" points="74.63 58.56 36.51 79.07 0 58.56 0 4.43 74.63 4.43 74.63 58.56"/><polygon class="cls-2" points="77.96 54.13 39.84 74.63 3.33 54.13 3.33 0 77.96 0 77.96 54.13"/><polygon class="cls-3" points="66.94 49.16 40.07 63.62 14.34 49.16 14.34 11.01 66.94 11.01 66.94 49.16"/><polygon class="cls-1" points="33.6 18.25 38.36 27.87 48.98 29.42 41.29 36.91 43.11 47.49 33.6 42.5 24.1 47.49 25.92 36.91 18.23 29.42 28.85 27.87 33.6 18.25"/><polygon class="cls-2" points="33.93 17.72 38.68 27.34 49.3 28.89 41.62 36.38 43.43 46.96 33.93 41.97 24.43 46.96 26.24 36.38 18.55 28.89 29.18 27.34 33.93 17.72"/><polygon class="cls-1" points="46.83 20.72 51.58 30.35 62.21 31.89 54.52 39.39 56.33 49.97 46.83 44.98 37.33 49.97 39.14 39.39 31.45 31.89 42.08 30.35 46.83 20.72"/><polygon class="cls-2" points="47.15 20.2 51.9 29.82 62.53 31.37 54.84 38.86 56.66 49.44 47.15 44.45 37.65 49.44 39.46 38.86 31.78 31.37 42.4 29.82 47.15 20.2"/></g></g></svg>