<svg xmlns="http://www.w3.org/2000/svg" xmlns:xlink="http://www.w3.org/1999/xlink" viewBox="0 0 961 543.34"><defs><style>.cls-1{fill:#809290;}.cls-2{fill:#8ca19e;}.cls-3{fill:#497570;}.cls-4{fill:#33524e;}.cls-5{fill:url(#linear-gradient);}.cls-6{fill:#fff;opacity:0.5;}.cls-7{fill:#b5eb26;}.cls-8{fill:#252f39;}.cls-9{fill:#384757;}.cls-10{fill:#95c11f;}</style><linearGradient id="linear-gradient" x1="484.8" y1="489.84" x2="484.95" y2="543.85" gradientUnits="userSpaceOnUse"><stop offset="0" stop-color="#0090bc" stop-opacity="0.7"/><stop offset="1" stop-color="#407f9a" stop-opacity="0"/></linearGradient></defs><title>Asset 25</title><g id="Layer_2" data-name="Layer 2"><g id="Layer_1-2" data-name="Layer 1"><rect class="cls-1" x="1" width="960" height="541.58"/><path class="cls-2" d="M928.75,234.41a94.53,94.53,0,0,0,.58,10.38,56.73,56.73,0,0,0-55.83,55.63H401.71a93.06,93.06,0,1,0-176.48-57.58,45.11,45.11,0,0,0-34-2.23A56.67,56.67,0,0,0,80,256.25a57.49,57.49,0,0,0,.36,6.42,44.65,44.65,0,0,0-10.46,3.74A45,45,0,0,0,1,247.45V541.16H961V164.39A92.57,92.57,0,0,0,928.75,234.41Z"/><ellipse class="cls-2" cx="183.21" cy="191.21" rx="17.92" ry="17.96"/><ellipse class="cls-2" cx="849.29" cy="271.57" rx="17.92" ry="17.96"/><ellipse class="cls-2" cx="818.32" cy="262.22" rx="7.6" ry="7.62"/><polygon class="cls-3" points="584.02 128.82 577.89 149.05 590 149.2 584.02 128.82"/><rect class="cls-3" x="583.18" y="146.29" width="1.53" height="11.06"/><polygon class="cls-3" points="683.07 345.12 676.94 365.35 689.05 365.51 683.07 345.12"/><rect class="cls-3" x="682.23" y="362.6" width="1.53" height="11.06"/><polygon class="cls-3" points="507.87 171.94 501.74 192.18 513.85 192.33 507.87 171.94"/><rect class="cls-3" x="507.03" y="189.42" width="1.53" height="11.06"/><polygon class="cls-3" points="170.95 228.55 164.82 248.78 176.93 248.93 170.95 228.55"/><rect class="cls-3" x="170.11" y="246.02" width="1.53" height="11.06"/><polygon class="cls-3" points="102.22 144.32 96.09 164.55 108.2 164.7 102.22 144.32"/><rect class="cls-3" x="101.38" y="161.79" width="1.53" height="11.06"/><polygon class="cls-3" points="61.79 144.32 55.66 164.55 67.77 164.7 61.79 144.32"/><rect class="cls-3" x="60.95" y="161.79" width="1.53" height="11.06"/><rect class="cls-3" x="1" y="368.88" width="960" height="172.7"/><rect class="cls-3" x="32.6" y="169.46" width="103.87" height="250.45" rx="33.98" ry="33.98"/><rect class="cls-3" x="101.07" y="253.82" width="103.87" height="250.45" rx="33.98" ry="33.98"/><rect class="cls-3" x="449.74" y="197.36" width="103.87" height="250.45" rx="33.98" ry="33.98"/><rect class="cls-3" x="528.77" y="152.31" width="103.87" height="250.45" rx="33.98" ry="33.98"/><rect class="cls-4" x="1" y="416.45" width="960" height="125.13"/><rect class="cls-4" x="227.44" y="276.72" width="103.87" height="250.45" rx="33.98" ry="33.98"/><rect class="cls-4" x="806.48" y="222.78" width="103.87" height="250.45" rx="33.98" ry="33.98"/><rect class="cls-4" x="743.41" y="251.63" width="103.87" height="250.45" rx="33.98" ry="33.98"/><rect class="cls-4" x="274.02" y="318.98" width="103.87" height="198.16" rx="33.98" ry="33.98"/><polygon class="cls-4" points="431.56 372.92 420.95 407.94 441.92 408.21 431.56 372.92"/><rect class="cls-4" x="430.11" y="403.17" width="2.65" height="19.15"/><polygon class="cls-4" points="187.26 371.94 176.65 406.96 197.61 407.23 187.26 371.94"/><rect class="cls-4" x="185.8" y="402.19" width="2.65" height="19.15"/><polygon class="cls-4" points="353.07 274.81 342.46 309.83 363.42 310.1 353.07 274.81"/><rect class="cls-4" x="351.62" y="305.05" width="2.65" height="19.15"/><polygon class="cls-4" points="274.58 228.69 263.97 263.72 284.93 263.98 274.58 228.69"/><rect class="cls-4" x="273.13" y="258.94" width="2.65" height="19.15"/><polygon class="cls-4" points="777.13 206.48 766.51 241.5 787.48 241.77 777.13 206.48"/><rect class="cls-4" x="775.67" y="236.73" width="2.65" height="19.15"/><path class="cls-5" d="M676.1,490.6H669c-35.36.7-70.71,1.88-105.78,3.91-29.18,1.68-58.48,3.46-88,3.41q-21.63,0-43.22-.66c-25.25-.71-49.85-3.23-74.85-4.68-5.87-.34-10.76-.14-16.75-.78-3.92-.42-46.76-2.09-46.76-1.2v52.74H676.1Z"/><path class="cls-6" d="M676.1,490.11c-.21-.72-25.05.53-26.81.61-16.17.69-32.4,1-48.61,1.56-31.73,1-62.93,3.85-94.66,4.86q-14,.45-28.06.45c-7.72,0-15.44-.14-23.14-.33-17.5-.44-34.9-1.33-52.29-2.2-28.16-1.4-55.76-4.16-84.16-4.81q-12.38-.28-24.79-.12a20.52,20.52,0,0,1,.06,3.22c0-.44,30.59.49,33.4.57,12.46.33,24.75,1.29,37,2.17,9.33.68,18.29,2,27.59,2.72,4.1.32,8.43.51,12.45.95h0c1.08.12,4.63.65,4.46,1.27s-6.32.16-7.7.2c-6.32.19-14,.11-20.05.83,3.5.9,11,.22,15.29.29,8,.14,15.9.49,23.82.66,6.08.13,12.28.21,18.32.55,4.07.23,26.18,5.39,29.14,3,1-.83-4.48-.77-5.19-1.42-2.49-2.28,11.52-2.5,13.82-2.55,8.21-.18,16.42-.42,24.63-.62,7.84-.19,16.37-.2,24.2,0,5.85.15,11.88.69,17.73,1,4.25.23,10.49,1.53,14.63.36,4.43-1.25-6.48-.83-3.12-2.25,2.13-.9,7-.45,9.89-.52s8-.17,10.45-.87c-1.27-.76-4.47-.09-5.73-.79-2.84-1.57,7.47-3,9.74-3.1,4.69-.31,9.42-.37,14.13-.58,23.17-1,46.46-1.56,69.74-2,4.45-.07,9.37-.35,13.76,0Z"/><rect class="cls-7" x="677.02" y="473" width="283.98" height="9.83"/><rect class="cls-8" x="677.02" y="479.31" width="283.98" height="62.25"/><rect class="cls-9" x="677.02" y="479.31" width="283.98" height="17.7"/><rect class="cls-10" x="677.02" y="477.06" width="283.98" height="4.18"/><rect class="cls-9" x="693.23" y="489.84" width="53.6" height="16.51" rx="2.43" ry="2.43"/><rect class="cls-9" x="760.1" y="489.84" width="53.6" height="16.51" rx="2.43" ry="2.43"/><rect class="cls-9" x="826.96" y="489.84" width="53.6" height="16.51" rx="2.43" ry="2.43"/><rect class="cls-9" x="893.83" y="489.84" width="53.6" height="16.51" rx="2.43" ry="2.43"/><polygon class="cls-10" points="693.47 479.59 686.75 485.43 694.66 483.76 699.65 491.05 702.35 484.18 709.22 487.72 707.97 483.35 718.16 479.61 693.47 479.59"/><polygon class="cls-10" points="933.47 481.05 928.26 486.11 935.15 483.56 939.03 490.33 944.25 484.56 951.24 488.66 950.57 483.56 958.16 481.06 933.47 481.05"/><rect class="cls-7" y="472.52" width="293.88" height="9.83"/><rect class="cls-8" y="478.83" width="293.88" height="62.25"/><rect class="cls-9" y="478.83" width="293.88" height="17.7"/><rect class="cls-10" y="476.57" width="293.88" height="4.18"/><rect class="cls-9" x="26.05" y="489.36" width="53.6" height="16.51" rx="2.43" ry="2.43"/><rect class="cls-9" x="92.92" y="489.36" width="53.6" height="16.51" rx="2.43" ry="2.43"/><rect class="cls-9" x="159.78" y="489.36" width="53.6" height="16.51" rx="2.43" ry="2.43"/><rect class="cls-9" x="226.65" y="489.36" width="53.6" height="16.51" rx="2.43" ry="2.43"/><polygon class="cls-10" points="49.74 479.69 43.02 485.52 50.92 483.86 55.92 491.14 58.62 484.28 65.49 487.81 64.24 483.44 74.43 479.7 49.74 479.69"/><polygon class="cls-10" points="270.03 478.48 263.31 484.31 271.22 482.65 276.21 489.93 278.92 483.06 286.12 484.26 280.08 478.12 270.03 478.48"/><path class="cls-9" d="M10.36,489.36H0v16.51H10.36a2.43,2.43,0,0,0,2.43-2.43V491.78A2.43,2.43,0,0,0,10.36,489.36Z"/></g></g></svg>