<svg xmlns="http://www.w3.org/2000/svg" viewBox="0 0 42.5 35.02"><defs><style>.cls-1{fill:#252f39;}</style></defs><title>Asset 5</title><g id="Layer_2" data-name="Layer 2"><g id="Layer_1-2" data-name="Layer 1"><path class="cls-1" d="M9.68,3.41A9.58,9.58,0,0,0,0,12.89a9.58,9.58,0,0,0,9.68,9.48,9.58,9.58,0,0,0,9.68-9.48A9.58,9.58,0,0,0,9.68,3.41Zm0,15.66a6.18,6.18,0,1,1,0-12.35,6.18,6.18,0,1,1,0,12.35Z"/><path class="cls-1" d="M32.82,3.61a9.58,9.58,0,0,0-9.68,9.48,9.68,9.68,0,0,0,19.35,0A9.58,9.58,0,0,0,32.82,3.61Zm0,15.66a6.18,6.18,0,1,1,6.3-6.18A6.24,6.24,0,0,1,32.82,19.26Z"/><path class="cls-1" d="M21.39,0h-8.7a3.4,3.4,0,0,0-3.4,3.4V24.93a3.4,3.4,0,0,0,3.4,3.4H20.1a3.46,3.46,0,0,0,0,.4,3.38,3.38,0,0,0,.11.85H17.4a2,2,0,0,0-2,1.79H12.53a1.82,1.82,0,0,0,0,3.64h8.86Z"/><path class="cls-1" d="M20.84,0h8.7a3.4,3.4,0,0,1,3.4,3.4V24.93a3.4,3.4,0,0,1-3.4,3.4H22.14a3.46,3.46,0,0,1,0,.4,3.35,3.35,0,0,1-.11.85h2.78a2,2,0,0,1,2,1.79h2.88a1.82,1.82,0,0,1,0,3.64H20.84Z"/></g></g></svg>