<svg xmlns="http://www.w3.org/2000/svg" viewBox="0 0 34.55 46.19"><defs><style>.cls-1{fill:#fff;}.cls-2{fill:#c7dcf2;opacity:0.4;}</style></defs><title>Asset 19</title><g id="Layer_2" data-name="Layer 2"><g id="Layer_1-2" data-name="Layer 1"><circle class="cls-1" cx="22.16" cy="2.82" r="2.82" transform="translate(4.51 16.52) rotate(-45.08)"/><path class="cls-2" d="M20.83.35a2.81,2.81,0,0,1,1.74,5.26A2.82,2.82,0,1,0,20.83.35Z"/><circle class="cls-1" cx="21.58" cy="8.22" r="4.52" transform="translate(0.52 17.7) rotate(-45.08)"/><path class="cls-2" d="M21.28,3.73A4.47,4.47,0,0,1,23,4.8a4.5,4.5,0,0,1-2.89,7.69,4.51,4.51,0,1,0,1.14-8.76Z"/><circle class="cls-1" cx="20.84" cy="14.63" r="6.28" transform="translate(-4.23 19.05) rotate(-45.08)"/><circle class="cls-2" cx="20.91" cy="15.74" r="5.45" transform="translate(-5 19.43) rotate(-45.08)"/><circle class="cls-1" cx="25.08" cy="15.39" r="6.29" transform="translate(-3.52 22.28) rotate(-45.08)"/><path class="cls-2" d="M20.76,10.84a6.27,6.27,0,0,1,7.54,9.88l-.13.11a6.27,6.27,0,1,0-7.4-10Z"/><circle class="cls-1" cx="22.53" cy="38.13" r="6.28" transform="translate(-20.38 27.16) rotate(-45.08)"/><circle class="cls-1" cx="22.53" cy="38.13" r="6.28" transform="translate(-20.38 27.16) rotate(-45.08)"/><circle class="cls-1" cx="12.15" cy="27.57" r="6.29" transform="translate(-15.96 16.71) rotate(-45.08)"/><circle class="cls-2" cx="12.23" cy="26.19" r="5.11" transform="translate(-14.95 16.35) rotate(-45.08)"/><path class="cls-2" d="M26,41.14a6.28,6.28,0,0,1-8.89,0c-.11-.11-.19-.24-.29-.35a6.2,6.2,0,0,0,1.23,1.79A6.27,6.27,0,0,0,27.26,34,6.27,6.27,0,0,1,26,41.14Z"/><circle class="cls-1" cx="29.65" cy="34.24" r="4.32" transform="translate(-15.54 31.06) rotate(-45.08)"/><circle class="cls-2" cx="29.65" cy="34.24" r="4.32" transform="translate(-15.54 31.06) rotate(-45.08)"/><circle class="cls-1" cx="31.75" cy="43.39" r="2.76" transform="translate(-21.39 35.24) rotate(-45.08)"/><path class="cls-2" d="M33.42,44.78a2.76,2.76,0,0,1-3.9,0,2.8,2.8,0,0,1-.29-.35A2.76,2.76,0,1,0,34,41.83,2.76,2.76,0,0,1,33.42,44.78Z"/><circle class="cls-1" cx="2.76" cy="34.28" r="2.76" transform="translate(-23.46 12.03) rotate(-45.08)"/><path class="cls-2" d="M4.17,31.92a2.41,2.41,0,0,1,.3.24,2.47,2.47,0,1,1-3.57.1l-.09.07a2.76,2.76,0,1,0,3.9,0A2.75,2.75,0,0,0,4.17,31.92Z"/><circle class="cls-1" cx="16.8" cy="41.36" r="2.76" transform="translate(-24.35 24.05) rotate(-45.08)"/><circle class="cls-2" cx="16.8" cy="41.36" r="2.76" transform="translate(-24.35 24.05) rotate(-45.08)"/><circle class="cls-1" cx="16.73" cy="40.48" r="2.76" transform="translate(-23.75 23.74) rotate(-45.08)"/><circle class="cls-1" cx="14.59" cy="20.62" r="6.29" transform="translate(-10.31 16.39) rotate(-45.08)"/><circle class="cls-1" cx="12.94" cy="35.91" r="6.28" transform="translate(-21.63 19.72) rotate(-45.08)"/><circle class="cls-1" cx="23.56" cy="25.81" r="10.22" transform="translate(-11.35 24.27) rotate(-45.08)"/><path class="cls-2" d="M25.15,15.73a10.21,10.21,0,0,1-5.63,19.47,10.21,10.21,0,1,0,5.63-19.47Z"/></g></g></svg>