<svg xmlns="http://www.w3.org/2000/svg" viewBox="0 0 71.56 74.36"><defs><style>.cls-1{fill:#95c11f;}.cls-2{fill:#2b64b3;}.cls-3{fill:#112847;}.cls-4{fill:#f7c459;}.cls-17,.cls-5{fill:#f7d99c;}.cls-6{fill:#11161a;}.cls-7{fill:#252f39;}.cls-8{fill:#f25f4b;}.cls-9{fill:#1c242b;}.cls-10{fill:#ff9257;}.cls-11{fill:#968200;}.cls-12{fill:#3a3f45;}.cls-13{fill:#c7ac00;}.cls-14{fill:none;stroke:#252f39;stroke-miterlimit:10;}.cls-15{fill:#415458;}.cls-16{fill:#530d25;}.cls-17{opacity:0.2;}</style></defs><title>Asset 17</title><g id="Layer_2" data-name="Layer 2"><g id="Layer_1-2" data-name="Layer 1"><polygon class="cls-1" points="18.57 26.21 8.12 15.6 12.43 15.76 9.28 2.82 24.87 8.63 28.19 0 34.16 7.8 39.8 1.66 41.96 9.46 45.61 9.13 42.29 26.88 18.57 26.21"/><path class="cls-2" d="M18.39,25.63a12.88,12.88,0,0,0-.87,4.64v5.12a12.94,12.94,0,1,0,25.87,0V30.28a12.88,12.88,0,0,0-.87-4.64Z"/><path class="cls-3" d="M26.42,36.41V31.3a12.84,12.84,0,0,1,1.32-5.67H18.39a12.88,12.88,0,0,0-.87,4.64v5.12a12.89,12.89,0,0,0,16,12.56A12.93,12.93,0,0,1,26.42,36.41Z"/><path d="M27,65.27l.14,8.7s3.6,3.2,11.1-8.8Z"/><rect class="cls-4" x="27.7" y="26.44" width="16.14" height="8.38"/><rect class="cls-5" x="27.7" y="26.44" width="16.14" height="2.62"/><circle class="cls-6" cx="29.17" cy="30.72" r="6.12"/><circle class="cls-7" cx="29.17" cy="30.72" r="3.54"/><path class="cls-8" d="M14.39,69.8A2.19,2.19,0,0,1,12.2,72H6A2.19,2.19,0,0,1,3.79,69.8h0A2.19,2.19,0,0,1,6,67.61H12.2a2.19,2.19,0,0,1,2.19,2.19Z"/><path class="cls-9" d="M19,65.17l.14,8.7s3.6,3.2,11.1-8.8Z"/><path class="cls-10" d="M16.73,38.1H30.31A13.42,13.42,0,0,1,43.73,51.52v4.19A13.42,13.42,0,0,1,30.31,69.13H16.73Z"/><rect class="cls-11" x="1.38" y="29.01" width="15.65" height="41.37" rx="2.02" ry="2.02"/><path class="cls-9" d="M16.73,59.41V69.77H30.51a13.61,13.61,0,0,0,13.2-10.36Z"/><path class="cls-12" d="M29.6,37.47H16.73v31H29.6c7,0,12.71-6,12.71-13.42V50.88C42.31,43.47,36.62,37.47,29.6,37.47ZM39.72,54.65a10.43,10.43,0,0,1-10.14,10.7H19.32V40.61H29.58a10.43,10.43,0,0,1,10.14,10.7Z"/><path class="cls-13" d="M6.46,29H3.4a2,2,0,0,0-2,2V68.36a2,2,0,0,0,2,2H6.46Z"/><rect class="cls-9" y="37.79" width="17.53" height="4.34"/><rect class="cls-9" y="60.82" width="17.53" height="4.34"/><rect class="cls-6" x="11.26" y="37.79" width="6.27" height="4.34"/><rect class="cls-6" x="11.26" y="60.82" width="6.27" height="4.34"/><rect class="cls-8" x="29.14" y="42.57" width="27.87" height="6.63" rx="3.19" ry="3.19"/><rect class="cls-14" x="34.83" y="48.91" width="15.95" height="7.2" rx="3.19" ry="3.19"/><path class="cls-9" d="M25.85,45.53v9.53h9.54A3.19,3.19,0,0,1,38.57,52h10a3.19,3.19,0,0,1,3.18,3.11h7.79V45.53Z"/><rect class="cls-15" x="28.21" y="45.72" width="26.5" height="1.03"/><rect class="cls-16" x="48.61" y="44.17" width="22.95" height="12.06" rx="3.19" ry="3.19"/><rect class="cls-12" x="22.93" y="44.95" width="10.7" height="16.73" rx="3.19" ry="3.19"/><path class="cls-7" d="M26.08,51.34a3.19,3.19,0,0,1,3.19-3.19h4.36v0a3.19,3.19,0,0,0-3.19-3.19H26.12a3.19,3.19,0,0,0-3.19,3.19V58.49a3.19,3.19,0,0,0,3.15,3.19Z"/><path class="cls-17" d="M71.56,50.41V47.36a3.19,3.19,0,0,0-3.19-3.19H51.8a3.19,3.19,0,0,0-3.19,3.19v3.05Z"/><circle class="cls-6" cx="53.69" cy="50.04" r="2.21"/><circle class="cls-6" cx="60.26" cy="50.04" r="2.21"/><circle class="cls-6" cx="66.83" cy="50.04" r="2.21"/><rect class="cls-2" x="21.69" y="41.11" width="7.38" height="15.81" rx="2.36" ry="2.36"/><path class="cls-4" d="M38.26,52.08h4.6a2.36,2.36,0,0,1,2.36,2.36v5.3a2.36,2.36,0,0,1-2.36,2.36h-4.6a2.35,2.35,0,0,1-2.35-2.35V54.44A2.35,2.35,0,0,1,38.26,52.08Z"/><path class="cls-9" d="M39.62,55.58a2.14,2.14,0,0,1,1.48,2.58l-2.08,5a2.14,2.14,0,0,1-2.87.78L20.7,57.57A2.14,2.14,0,0,1,19.22,55l2.08-5a2.14,2.14,0,0,1,2.87-.78Z"/><path class="cls-6" d="M39.11,61.68,20.57,54a4.27,4.27,0,0,1-.76-.42L19.22,55a2.14,2.14,0,0,0,1.48,2.58L36.15,64A2.14,2.14,0,0,0,39,63.19l.56-1.35A4.37,4.37,0,0,1,39.11,61.68Z"/><path class="cls-4" d="M58.49,55.19A2.46,2.46,0,0,1,56,57.65H50.31a2.46,2.46,0,0,1-2.46-2.46h0a2.46,2.46,0,0,1,2.46-2.46H56a2.46,2.46,0,0,1,2.46,2.46Z"/><path class="cls-9" d="M18.19,45.9a7.31,7.31,0,0,1,14.62,0Z"/></g></g></svg>