<svg xmlns="http://www.w3.org/2000/svg" viewBox="0 0 241.19 530.32"><defs><style>.cls-1{fill:#fff;}.cls-2{fill:#c7dcf2;opacity:0.4;}.cls-3{fill:#252f39;}.cls-4{fill:#3a3f45;}.cls-5{fill:#f7c459;}.cls-6{fill:#f7d99c;}.cls-7{fill:#415458;}.cls-8{fill:#c7ac00;}.cls-9{fill:#c24c3c;}.cls-10{fill:#ed5d49;}.cls-11{fill:#1c242b;}.cls-12{fill:#01c8ab;}.cls-13{fill:#019983;}</style></defs><title>Asset 13</title><g id="Layer_2" data-name="Layer 2"><g id="Layer_1-2" data-name="Layer 1"><circle class="cls-1" cx="163.81" cy="301.6" r="8.47" transform="translate(-165.42 204.62) rotate(-45.08)"/><path class="cls-2" d="M159.82,294.16a8.45,8.45,0,0,1,7.24,14.34,8.62,8.62,0,0,1-2,1.45,8.45,8.45,0,1,0-5.23-15.79Z"/><circle class="cls-1" cx="160.32" cy="350.8" r="20.81" transform="translate(-201.29 216.61) rotate(-45.08)"/><path class="cls-2" d="M159,330.12a20.71,20.71,0,0,1-5.24,40.34A20.75,20.75,0,1,0,159,330.12Z"/><path class="cls-1" d="M183.65,351.53a35.11,35.11,0,1,1-49.66.06A35.11,35.11,0,0,1,183.65,351.53Z"/><circle class="cls-2" cx="159.26" cy="382.61" r="30.45" transform="translate(-224.11 225.2) rotate(-45.08)"/><circle class="cls-1" cx="186" cy="412.88" r="35.12" transform="translate(-237.69 253.03) rotate(-45.08)"/><path class="cls-2" d="M161.89,387.47A35,35,0,0,1,204,442.67c-.24.24-.52.39-.75.62a34.73,34.73,0,0,0,7.6-5.62,35.07,35.07,0,0,0-49-50.21Z"/><path class="cls-1" d="M160.32,409.77a28.95,28.95,0,1,1-40.93.06A28.94,28.94,0,0,1,160.32,409.77Z"/><circle class="cls-2" cx="140.24" cy="423.89" r="23.54" transform="translate(-258.94 223.88) rotate(-45.08)"/><path class="cls-1" d="M177.36,466.07a28.94,28.94,0,1,1-40.93.06A28.95,28.95,0,0,1,177.36,466.07Z"/><path class="cls-1" d="M177.36,466.07a28.94,28.94,0,1,1-40.93.06A28.95,28.95,0,0,1,177.36,466.07Z"/><path class="cls-2" d="M173.08,500.4a28.94,28.94,0,0,1-40.93.05c-.51-.5-.87-1.09-1.33-1.63A28.84,28.84,0,1,0,178.7,467.7,28.85,28.85,0,0,1,173.08,500.4Z"/><circle class="cls-1" cx="176.35" cy="477.14" r="19.89" transform="translate(-286.02 265.06) rotate(-45.08)"/><circle class="cls-2" cx="176.35" cy="477.14" r="19.89" transform="translate(-286.02 265.06) rotate(-45.08)"/><path class="cls-1" d="M190.91,508.43a12.71,12.71,0,1,1-18,0A12.72,12.72,0,0,1,190.91,508.43Z"/><path class="cls-2" d="M189.59,523.82a12.5,12.5,0,0,1-19.31-1.6,12.69,12.69,0,1,0,22.14-12A12.72,12.72,0,0,1,189.59,523.82Z"/><path class="cls-1" d="M105.06,417.55a12.71,12.71,0,1,1-18,0A12.71,12.71,0,0,1,105.06,417.55Z"/><path class="cls-2" d="M102.6,415.68a11.37,11.37,0,1,1-15.1,1.55c-.14.12-.29.21-.42.35a12.71,12.71,0,1,0,18,0A12.53,12.53,0,0,0,102.6,415.68Z"/><path class="cls-1" d="M132.64,504.66a12.71,12.71,0,1,1-18,0A12.71,12.71,0,0,1,132.64,504.66Z"/><circle class="cls-1" cx="123.31" cy="509.59" r="12.71" transform="translate(-324.59 237.07) rotate(-45.08)"/><path class="cls-2" d="M132.64,503.61a12.71,12.71,0,1,1-18,0A12.71,12.71,0,0,1,132.64,503.61Z"/><path class="cls-1" d="M147.47,381.16a28.95,28.95,0,1,1-40.94.07A28.94,28.94,0,0,1,147.47,381.16Z"/><circle class="cls-1" cx="106.28" cy="463.9" r="28.94" transform="translate(-297.24 211.58) rotate(-45.08)"/><circle class="cls-1" cx="207.58" cy="472.52" r="32.26" transform="translate(-273.58 285.85) rotate(-45.08)"/><path class="cls-2" d="M213.61,441.2a32.23,32.23,0,0,1-17.76,61.46,32.24,32.24,0,1,0,17.76-61.46Z"/><circle class="cls-1" cx="161.84" cy="324.44" r="13.01" transform="translate(-182.18 209.94) rotate(-45.08)"/><path class="cls-2" d="M155.71,313a12.93,12.93,0,0,1,8,24.24,13,13,0,1,0-8-24.24Z"/><path class="cls-3" d="M106.22,243.13l-8.3,42.56s-20.45,12.55-46.77-52.86Z"/><path class="cls-4" d="M29.84,78.29A64.47,64.47,0,0,0,82,153.06h0a64.47,64.47,0,0,0,74.76-52.19l4.46-25.1A64.47,64.47,0,0,0,109.07,1h0A64.47,64.47,0,0,0,34.3,53.19Z"/><path class="cls-3" d="M112.22,98.12,116.68,73A64.45,64.45,0,0,0,79.21,2.8a64.38,64.38,0,0,1,82,73l-4.46,25.1a64.24,64.24,0,0,1-89.48,47.64A64.42,64.42,0,0,0,112.22,98.12Z"/><rect class="cls-5" x="17.24" y="49.19" width="98.34" height="80.42" transform="translate(-33.24 139.13) rotate(-79.91)"/><rect class="cls-6" x="69.92" y="7.84" width="9.75" height="78.69" transform="translate(15.24 112.56) rotate(-79.91)"/><circle class="cls-7" cx="103.68" cy="67.77" r="30.52" transform="translate(18.8 157.98) rotate(-79.91)"/><circle class="cls-3" cx="103.68" cy="67.77" r="17.64" transform="matrix(0.18, -0.98, 0.98, 0.18, 18.8, 157.98)"/><path class="cls-3" d="M142.64,269.3a10.9,10.9,0,0,0,8.83,12.65L182,287.38a10.91,10.91,0,0,0,12.65-8.83h0a10.91,10.91,0,0,0-8.83-12.65l-30.55-5.43a10.91,10.91,0,0,0-12.65,8.83Z"/><path class="cls-7" d="M123.6,245.71l-8.29,42.56s-20.45,12.56-46.78-52.85Z"/><path class="cls-8" d="M158.83,111.73,92.18,99.88A66.86,66.86,0,0,0,14.63,154L11,174.57A66.86,66.86,0,0,0,65.1,252.12L131.75,264Z"/><path class="cls-9" d="M131,259.94a10,10,0,0,0,8.13,11.65l57,10.13a10.05,10.05,0,0,0,11.66-8.13L240.31,90.41a10.06,10.06,0,0,0-8.14-11.66l-57-10.13a10.05,10.05,0,0,0-11.65,8.14Z"/><path class="cls-7" d="M140.24,216.29l-9,50.82-67.62-12A67.8,67.8,0,0,1,7.83,192.74Z"/><path class="cls-3" d="M22.17,152.11l-3.66,20.57C12,209,34.72,243.48,69.17,249.61l63.14,11.23L159.39,108.6,96.25,97.37C61.8,91.24,28.63,115.75,22.17,152.11Zm12.33,4.34c5.16-29,31.62-48.55,59.09-43.67l50.37,9-21.6,121.44-50.37-9c-27.47-4.89-45.57-32.36-40.41-61.36Z"/><path class="cls-10" d="M217.17,76.08l15,2.67a10.06,10.06,0,0,1,8.14,11.66L207.73,273.6a10.05,10.05,0,0,1-11.66,8.13l-15-2.67Z"/><rect class="cls-3" x="185.47" y="84.11" width="21.65" height="87.34" transform="translate(36.11 298.67) rotate(-79.91)"/><rect class="cls-3" x="165.37" y="197.11" width="21.65" height="87.34" transform="translate(-91.72 372.09) rotate(-79.91)"/><rect class="cls-11" x="162.82" y="103.09" width="21.65" height="41.33" transform="translate(21.39 273.05) rotate(-79.91)"/><rect class="cls-11" x="142.72" y="216.08" width="21.65" height="41.33" transform="translate(-106.43 346.46) rotate(-79.91)"/><rect class="cls-7" x="67.47" y="139.33" width="78.8" height="36.78" rx="11.74" ry="11.74" transform="translate(-67.12 235.32) rotate(-79.91)"/><path class="cls-5" d="M.18,193.05a11.73,11.73,0,0,0,9.5,13.61l22.58,4a11.74,11.74,0,0,0,13.61-9.5l4.63-26A11.74,11.74,0,0,0,41,161.54l-22.58-4A11.74,11.74,0,0,0,4.81,167Z"/><path class="cls-12" d="M31.25,177.5c-6.33,1.39-10.6,6.48-9.52,11.36l5.83,26.49c1.07,4.88,7.07,7.71,13.41,6.32l81.4-17.91c6.33-1.39,10.59-6.48,9.51-11.36l-5.83-26.49C125,161,119,158.2,112.64,159.59Z"/><path class="cls-13" d="M124.77,183.52a22.63,22.63,0,0,0,4.79-1.66l2.32,10.53c1.08,4.88-3.19,10-9.51,11.36L41,221.67c-6.33,1.39-12.34-1.44-13.41-6.32l-2.19-10Z"/></g></g></svg>