<svg xmlns="http://www.w3.org/2000/svg" viewBox="0 0 222 106.1"><defs><style>.cls-1{fill:#084654;}.cls-2{fill:#ff0;}</style></defs><title>Asset 12</title><g id="Layer_2" data-name="Layer 2"><g id="Layer_1-2" data-name="Layer 1"><polygon class="cls-1" points="31.43 46.3 41.15 65.99 62.87 69.14 47.15 84.46 50.86 106.1 31.43 95.88 12.01 106.1 15.72 84.46 0 69.14 21.72 65.99 31.43 46.3"/><polygon class="cls-1" points="109.54 3.34 119.25 23.02 140.97 26.18 125.25 41.5 128.96 63.13 109.54 52.92 90.11 63.13 93.82 41.5 78.1 26.18 99.82 23.02 109.54 3.34"/><polygon class="cls-1" points="187.64 46.3 197.35 65.99 219.07 69.14 203.36 84.46 207.07 106.1 187.64 95.88 168.21 106.1 171.92 84.46 156.21 69.14 177.93 65.99 187.64 46.3"/><polygon class="cls-2" points="34.36 42.96 44.07 62.64 65.79 65.8 50.08 81.12 53.79 102.75 34.36 92.54 14.93 102.75 18.64 81.12 2.93 65.8 24.65 62.64 34.36 42.96"/><polygon class="cls-2" points="112.46 0 122.18 19.68 143.9 22.84 128.18 38.16 131.89 59.79 112.46 49.58 93.04 59.79 96.75 38.16 81.03 22.84 102.75 19.68 112.46 0"/><polygon class="cls-2" points="190.57 42.96 200.28 62.64 222 65.8 206.28 81.12 209.99 102.75 190.57 92.54 171.14 102.75 174.85 81.12 159.13 65.8 180.85 62.64 190.57 42.96"/></g></g></svg>