<svg xmlns="http://www.w3.org/2000/svg" xmlns:xlink="http://www.w3.org/1999/xlink" viewBox="0 0 92 92"><defs><style>.cls-1{fill:url(#radial-gradient);}.cls-2{fill:url(#radial-gradient-2);}.cls-3{fill:url(#radial-gradient-3);}.cls-4{fill:url(#radial-gradient-4);}.cls-5{fill:url(#radial-gradient-5);}.cls-6{fill:url(#radial-gradient-6);}.cls-7{fill:url(#radial-gradient-7);}.cls-8{fill:url(#radial-gradient-8);}.cls-9{fill:url(#radial-gradient-9);}.cls-10{fill:url(#radial-gradient-10);}.cls-11{fill:url(#radial-gradient-11);}.cls-12{fill:url(#radial-gradient-12);}.cls-13{fill:url(#radial-gradient-13);}.cls-14{fill:url(#radial-gradient-14);}.cls-15{fill:url(#radial-gradient-15);}.cls-16{fill:url(#radial-gradient-16);}.cls-17{fill:url(#radial-gradient-17);}.cls-18{fill:url(#radial-gradient-18);}.cls-19{fill:url(#radial-gradient-19);}.cls-20{fill:url(#radial-gradient-20);}.cls-21{fill:url(#radial-gradient-21);}.cls-22{fill:url(#radial-gradient-22);}.cls-23{fill:url(#radial-gradient-23);}.cls-24{fill:url(#radial-gradient-24);}.cls-25{fill:#ffffd2;}.cls-26{fill:#5ebbea;opacity:0.4;}.cls-27{fill:#252f39;}</style><radialGradient id="radial-gradient" cx="45.46" cy="49.29" r="41.71" gradientUnits="userSpaceOnUse"><stop offset="0" stop-color="#f90"/><stop offset="1" stop-color="#ff9" stop-opacity="0"/></radialGradient><radialGradient id="radial-gradient-2" cx="45.46" cy="49.29" r="41.71" xlink:href="#radial-gradient"/><radialGradient id="radial-gradient-3" cx="45.46" cy="49.29" r="41.71" xlink:href="#radial-gradient"/><radialGradient id="radial-gradient-4" cx="45.46" cy="49.29" r="41.71" xlink:href="#radial-gradient"/><radialGradient id="radial-gradient-5" cx="45.46" cy="49.29" r="41.71" xlink:href="#radial-gradient"/><radialGradient id="radial-gradient-6" cx="45.46" cy="49.29" r="41.71" xlink:href="#radial-gradient"/><radialGradient id="radial-gradient-7" cx="45.46" cy="49.29" r="41.71" xlink:href="#radial-gradient"/><radialGradient id="radial-gradient-8" cx="45.46" cy="49.29" r="41.71" xlink:href="#radial-gradient"/><radialGradient id="radial-gradient-9" cx="45.46" cy="49.29" r="41.71" xlink:href="#radial-gradient"/><radialGradient id="radial-gradient-10" cx="45.46" cy="49.29" r="41.71" xlink:href="#radial-gradient"/><radialGradient id="radial-gradient-11" cx="45.46" cy="49.29" r="41.71" xlink:href="#radial-gradient"/><radialGradient id="radial-gradient-12" cx="45.46" cy="49.29" r="41.71" xlink:href="#radial-gradient"/><radialGradient id="radial-gradient-13" cx="45.46" cy="49.29" r="41.72" xlink:href="#radial-gradient"/><radialGradient id="radial-gradient-14" cx="45.46" cy="49.29" r="41.71" xlink:href="#radial-gradient"/><radialGradient id="radial-gradient-15" cx="45.46" cy="49.29" r="41.71" xlink:href="#radial-gradient"/><radialGradient id="radial-gradient-16" cx="45.46" cy="49.29" r="41.71" xlink:href="#radial-gradient"/><radialGradient id="radial-gradient-17" cx="45.46" cy="49.29" r="41.71" xlink:href="#radial-gradient"/><radialGradient id="radial-gradient-18" cx="45.46" cy="49.29" r="41.71" xlink:href="#radial-gradient"/><radialGradient id="radial-gradient-19" cx="45.46" cy="49.29" r="41.71" xlink:href="#radial-gradient"/><radialGradient id="radial-gradient-20" cx="45.46" cy="49.29" r="41.71" xlink:href="#radial-gradient"/><radialGradient id="radial-gradient-21" cx="45.46" cy="49.29" r="41.71" xlink:href="#radial-gradient"/><radialGradient id="radial-gradient-22" cx="45.45" cy="49.29" r="41.71" xlink:href="#radial-gradient"/><radialGradient id="radial-gradient-23" cx="45.46" cy="49.29" r="41.71" xlink:href="#radial-gradient"/><radialGradient id="radial-gradient-24" cx="45.46" cy="49.29" r="41.7" xlink:href="#radial-gradient"/></defs><title>Asset 3</title><g id="Layer_2" data-name="Layer 2"><g id="Layer_1-2" data-name="Layer 1"><polygon class="cls-1" points="42.84 0 46.09 46.09 49.16 0 42.84 0"/><polygon class="cls-2" points="42.84 92 46.09 45.91 49.16 92 42.84 92"/><polygon class="cls-3" points="31.05 2.38 46.1 46.06 37.15 0.75 31.05 2.38"/><polygon class="cls-4" points="54.86 91.25 46.06 45.9 60.96 89.61 54.86 91.25"/><polygon class="cls-5" points="20.27 7.74 46.12 46.03 25.73 4.58 20.27 7.74"/><polygon class="cls-6" points="66.26 87.42 46.03 45.88 71.73 84.26 66.26 87.42"/><polygon class="cls-7" points="11.24 15.71 46.12 46 15.7 11.24 11.24 15.71"/><polygon class="cls-8" points="76.29 80.76 46 45.88 80.76 76.3 76.29 80.76"/><polygon class="cls-9" points="4.58 25.73 46.12 45.97 7.74 20.27 4.58 25.73"/><polygon class="cls-10" points="84.26 71.73 45.97 45.88 87.42 66.27 84.26 71.73"/><polygon class="cls-11" points="0.75 37.15 46.1 45.94 2.38 31.04 0.75 37.15"/><polygon class="cls-12" points="89.62 60.96 45.94 45.9 91.25 54.85 89.62 60.96"/><polygon class="cls-13" points="0 49.16 46.09 45.91 0 42.84 0 49.16"/><polygon class="cls-14" points="92 49.16 45.91 45.91 92 42.84 92 49.16"/><polygon class="cls-15" points="2.38 60.96 46.06 45.9 0.75 54.85 2.38 60.96"/><polygon class="cls-16" points="91.25 37.15 45.9 45.94 89.62 31.04 91.25 37.15"/><polygon class="cls-17" points="7.74 71.73 46.03 45.88 4.58 66.27 7.74 71.73"/><polygon class="cls-18" points="87.42 25.73 45.88 45.97 84.26 20.27 87.42 25.73"/><polygon class="cls-19" points="15.7 80.76 46 45.88 11.24 76.3 15.7 80.76"/><polygon class="cls-20" points="80.76 15.71 45.88 46 76.29 11.24 80.76 15.71"/><polygon class="cls-21" points="25.73 87.42 45.97 45.88 20.27 84.26 25.73 87.42"/><polygon class="cls-22" points="71.73 7.74 45.88 46.03 66.26 4.58 71.73 7.74"/><polygon class="cls-23" points="37.15 91.25 45.94 45.9 31.05 89.61 37.15 91.25"/><polygon class="cls-24" points="60.96 2.38 45.9 46.06 54.86 0.75 60.96 2.38"/><polygon class="cls-25" points="33.03 82.29 13.25 62.51 13.25 34.53 33.03 14.76 61 14.76 80.78 34.53 80.78 62.51 61 82.29 33.03 82.29"/><polygon class="cls-26" points="13.25 46.56 13.25 62.51 33.03 82.29 61 82.29 80.78 62.51 80.78 46.56 13.25 46.56"/><polygon class="cls-27" points="36.02 75.05 20.49 59.51 20.49 37.53 36.02 21.99 58 21.99 73.54 37.53 73.54 59.51 58 75.05 36.02 75.05"/></g></g></svg>