<svg xmlns="http://www.w3.org/2000/svg" viewBox="0 0 144 125.66"><defs><style>.cls-1{fill:#b4d250;}.cls-2{fill:#3a370a;}.cls-3{fill:#70b538;}.cls-4{fill:#468b3b;}</style></defs><title>Asset 24</title><g id="Layer_2" data-name="Layer 2"><g id="Layer_1-2" data-name="Layer 1"><path class="cls-1" d="M51.75,30.85a11.88,11.88,0,0,0-8.28-15.56,7.87,7.87,0,0,0-13.1-7.62,11.87,11.87,0,0,0-22.7,6.73A10.64,10.64,0,0,0,5.35,33.83a7.87,7.87,0,0,0,10.46,11,11.87,11.87,0,0,0,22.13-6.45A11.87,11.87,0,0,0,51.75,30.85Z"/><path class="cls-2" d="M56.57,125.66V54A15.76,15.76,0,0,1,72.33,38.27h0A15.76,15.76,0,0,1,88.09,54v71.64Z"/><path class="cls-2" d="M47.82,125.66h0A10.07,10.07,0,0,1,57.89,115.6h43.47a10.07,10.07,0,0,1,10.07,10.07H47.82Z"/><path class="cls-2" d="M70.87,73.87a8.61,8.61,0,0,1-8.61,8.61H45a8.61,8.61,0,0,1-8.61-8.61h0A8.61,8.61,0,0,1,45,65.26H62.26a8.61,8.61,0,0,1,8.61,8.61Z"/><path class="cls-2" d="M48.4,73a6,6,0,0,1-6,6h0a6,6,0,0,1-6-6V53.73a6,6,0,0,1,6-6h0a6,6,0,0,1,6,6Z"/><path class="cls-2" d="M47.24,58.55A3.21,3.21,0,0,1,44,61.76H25.93a3.21,3.21,0,0,1-3.21-3.21h0a3.21,3.21,0,0,1,3.21-3.21H44a3.21,3.21,0,0,1,3.21,3.21Z"/><path class="cls-2" d="M29.14,58.55a3.21,3.21,0,0,1-3.21,3.21h0a3.21,3.21,0,0,1-3.21-3.21V38.41a3.21,3.21,0,0,1,3.21-3.21h0a3.21,3.21,0,0,1,3.21,3.21Z"/><path class="cls-2" d="M90.84,98.69a3.21,3.21,0,0,0,3.21,3.21h18.09a3.21,3.21,0,0,0,3.21-3.21h0a3.21,3.21,0,0,0-3.21-3.21H94.05a3.21,3.21,0,0,0-3.21,3.21Z"/><path class="cls-2" d="M108.93,98.69a3.21,3.21,0,0,0,3.21,3.21h0a3.21,3.21,0,0,0,3.21-3.21V78.56a3.21,3.21,0,0,0-3.21-3.21h0a3.21,3.21,0,0,0-3.21,3.21Z"/><path class="cls-2" d="M97.55,114.6a8.46,8.46,0,0,1-8.46,8.46h0a8.46,8.46,0,0,1-8.46-8.46V84a8.46,8.46,0,0,1,8.46-8.46h0A8.46,8.46,0,0,1,97.55,84Z"/><path class="cls-1" d="M139.13,68.07a11.88,11.88,0,0,0-8.28-15.56,7.87,7.87,0,0,0-13.1-7.62A11.87,11.87,0,0,0,95,51.61a10.64,10.64,0,0,0-2.32,19.45,7.87,7.87,0,0,0,10.46,11,11.87,11.87,0,0,0,22.13-6.45A11.87,11.87,0,0,0,139.13,68.07Z"/><path class="cls-3" d="M98.87,47.21a5.59,5.59,0,0,0-1.17,0,5.6,5.6,0,0,0-9.83-2.27,5.6,5.6,0,0,0-9.4,6,5.6,5.6,0,0,0,4.17,10A8.07,8.07,0,0,0,97,58.24l.3.05a5.6,5.6,0,0,0,1.57-11.08Z"/><path class="cls-4" d="M138.12,74.35a6,6,0,0,0-1.24.11,6,6,0,0,0-10.72-1.1A6,6,0,0,0,117,81a6,6,0,0,0,5.74,10,8.62,8.62,0,0,0,14.88-4.7h.32a6,6,0,1,0,.2-12Z"/><path class="cls-4" d="M40.53,30.12a6,6,0,0,0-1.24.11,6,6,0,0,0-10.72-1.1,6,6,0,0,0-9.17,7.59,6,6,0,0,0,5.74,10A8.62,8.62,0,0,0,40,42.07h.32a6,6,0,1,0,.2-12Z"/></g></g></svg>