<svg xmlns="http://www.w3.org/2000/svg" viewBox="0 0 115.54 150.67"><defs><style>.cls-1{fill:#94bd5d;}.cls-2{fill:#3a370a;}.cls-3{fill:#b4d250;}.cls-4{fill:#70b538;}.cls-5{fill:#468b3b;}</style></defs><title>Asset 23</title><g id="Layer_2" data-name="Layer 2"><g id="Layer_1-2" data-name="Layer 1"><path class="cls-1" d="M99.21,34.08a20.28,20.28,0,0,0-9.42-14.58A13.45,13.45,0,0,0,72.7,8.76a20.27,20.27,0,0,0-36.61,7.79,13.69,13.69,0,0,0-1.94-.14A13.44,13.44,0,0,0,20.7,29.85c0,.17,0,.33,0,.5h-.44A20.28,20.28,0,0,0,13,69.52c0,.07,0,.13,0,.19a20.27,20.27,0,0,0,31,17.22,23.24,23.24,0,0,0,35-.66c.45,0,.9.07,1.37.07A13.44,13.44,0,0,0,93.66,74.17c.53,0,1.06.07,1.6.07a20.28,20.28,0,0,0,4-40.16Z"/><path class="cls-2" d="M91.75,88.91a2.4,2.4,0,0,0-2.4,2.4v4.42H81.5a3.83,3.83,0,0,0-7.62.56v7.06H68.61V76.28a7.18,7.18,0,0,0-14.37,0v3.91H48.41V75.76a2.4,2.4,0,0,0-4.8,0v8.85a2.39,2.39,0,0,0,.51,1.48,4,4,0,0,0,3.45,2h6.68v18.33H53c-.27,0-.54,0-.8,0H39.39V97.28a5,5,0,0,0-10,0H23.56V92.84a2.4,2.4,0,1,0-4.8,0v8.85a2.39,2.39,0,0,0,.51,1.47,4,4,0,0,0,3.45,2h6.69v10.48a5,5,0,0,0,1.05,3.06,8.22,8.22,0,0,0,7.17,4.2h5.17V142H33.09a8.67,8.67,0,0,0-8.67,8.67H83.6A8.67,8.67,0,0,0,74.93,142H70.64V116.65c0-.22,0-.44,0-.65h4.6a6.31,6.31,0,0,0,5.51-3.22,3.81,3.81,0,0,0,.81-2.36v-6.76h8.65a4,4,0,0,0,3.45-2,2.39,2.39,0,0,0,.51-1.47V91.31A2.4,2.4,0,0,0,91.75,88.91Z"/><path class="cls-3" d="M86.36,46.41a13.18,13.18,0,0,0-14.51-13.1,8.73,8.73,0,0,0-16.54-3A13.16,13.16,0,0,0,34.19,45.9a11.8,11.8,0,0,0,4.93,21.15,8.73,8.73,0,0,0,15.05,7.5A13.17,13.17,0,0,0,74.8,59.48,13.17,13.17,0,0,0,86.36,46.41Z"/><path class="cls-4" d="M32.55,73.5a6.19,6.19,0,0,0-1.29.14,6.21,6.21,0,0,0-11.15-1,6.21,6.21,0,0,0-9.39,8,6.21,6.21,0,0,0,6.13,10.33,8.95,8.95,0,0,0,15.36-5.14h.33a6.21,6.21,0,0,0,0-12.41Z"/><path class="cls-5" d="M105.94,74.69a6.65,6.65,0,0,0-1.38.14,6.63,6.63,0,0,0-11.91-1,6.63,6.63,0,0,0-10,8.59,6.63,6.63,0,0,0,6.55,11,9.55,9.55,0,0,0,16.41-5.49h.36a6.63,6.63,0,1,0,0-13.26Z"/></g></g></svg>