<svg xmlns="http://www.w3.org/2000/svg" xmlns:xlink="http://www.w3.org/1999/xlink" viewBox="0 0 751.47 751.47"><defs><style>.cls-1{fill:url(#radial-gradient);}.cls-2{fill:url(#radial-gradient-2);}.cls-3{fill:url(#radial-gradient-3);}.cls-4{fill:url(#radial-gradient-4);}.cls-5{fill:url(#radial-gradient-5);}.cls-6{fill:url(#radial-gradient-6);}.cls-7{fill:url(#radial-gradient-7);}.cls-8{fill:url(#radial-gradient-8);}.cls-9{fill:url(#radial-gradient-9);}.cls-10{fill:url(#radial-gradient-10);}.cls-11{fill:url(#radial-gradient-11);}.cls-12{fill:url(#radial-gradient-12);}.cls-13{fill:url(#radial-gradient-13);}.cls-14{fill:url(#radial-gradient-14);}.cls-15{fill:url(#radial-gradient-15);}.cls-16{fill:url(#radial-gradient-16);}.cls-17{fill:url(#radial-gradient-17);}.cls-18{fill:url(#radial-gradient-18);}.cls-19{fill:url(#radial-gradient-19);}.cls-20{fill:url(#radial-gradient-20);}.cls-21{fill:url(#radial-gradient-21);}.cls-22{fill:url(#radial-gradient-22);}.cls-23{fill:url(#radial-gradient-23);}.cls-24{fill:url(#radial-gradient-24);}</style><radialGradient id="radial-gradient" cx="371.29" cy="402.62" r="340.71" gradientUnits="userSpaceOnUse"><stop offset="0" stop-color="#f90"/><stop offset="1" stop-color="#ff9" stop-opacity="0"/></radialGradient><radialGradient id="radial-gradient-2" cx="371.29" cy="402.62" r="340.67" xlink:href="#radial-gradient"/><radialGradient id="radial-gradient-3" cx="371.28" cy="402.62" r="340.68" xlink:href="#radial-gradient"/><radialGradient id="radial-gradient-4" cx="371.3" cy="402.62" r="340.67" xlink:href="#radial-gradient"/><radialGradient id="radial-gradient-5" cx="371.29" cy="402.63" r="340.67" xlink:href="#radial-gradient"/><radialGradient id="radial-gradient-6" cx="371.29" cy="402.62" r="340.68" xlink:href="#radial-gradient"/><radialGradient id="radial-gradient-7" cx="371.29" cy="402.62" r="340.66" xlink:href="#radial-gradient"/><radialGradient id="radial-gradient-8" cx="371.3" cy="402.63" r="340.66" xlink:href="#radial-gradient"/><radialGradient id="radial-gradient-9" cx="371.29" cy="402.62" r="340.68" xlink:href="#radial-gradient"/><radialGradient id="radial-gradient-10" cx="371.3" cy="402.62" r="340.67" xlink:href="#radial-gradient"/><radialGradient id="radial-gradient-11" cx="371.28" cy="402.62" r="340.68" xlink:href="#radial-gradient"/><radialGradient id="radial-gradient-12" cx="371.29" cy="402.62" r="340.68" xlink:href="#radial-gradient"/><radialGradient id="radial-gradient-13" cx="371.3" cy="402.62" r="340.81" xlink:href="#radial-gradient"/><radialGradient id="radial-gradient-14" cx="371.29" cy="402.62" r="340.67" xlink:href="#radial-gradient"/><radialGradient id="radial-gradient-15" cx="371.3" cy="402.62" r="340.69" xlink:href="#radial-gradient"/><radialGradient id="radial-gradient-16" cx="371.3" cy="402.62" r="340.66" xlink:href="#radial-gradient"/><radialGradient id="radial-gradient-17" cx="371.29" cy="402.62" r="340.67" xlink:href="#radial-gradient"/><radialGradient id="radial-gradient-18" cx="371.29" cy="402.62" r="340.68" xlink:href="#radial-gradient"/><radialGradient id="radial-gradient-19" cx="371.3" cy="402.63" r="340.67" xlink:href="#radial-gradient"/><radialGradient id="radial-gradient-20" cx="371.3" cy="402.62" r="340.66" xlink:href="#radial-gradient"/><radialGradient id="radial-gradient-21" cx="371.29" cy="402.62" r="340.68" xlink:href="#radial-gradient"/><radialGradient id="radial-gradient-22" cx="371.28" cy="402.63" r="340.7" xlink:href="#radial-gradient"/><radialGradient id="radial-gradient-23" cx="371.29" cy="402.62" r="340.67" xlink:href="#radial-gradient"/><radialGradient id="radial-gradient-24" cx="371.31" cy="402.62" r="340.64" xlink:href="#radial-gradient"/></defs><title>Asset 1</title><g id="Layer_2" data-name="Layer 2"><g id="Layer_1-2" data-name="Layer 1"><polygon class="cls-1" points="349.94 0 376.43 376.43 401.51 0 349.94 0"/><polygon class="cls-2" points="349.94 751.47 376.43 375.04 401.51 751.47 349.94 751.47"/><polygon class="cls-3" points="253.57 19.48 376.57 376.23 303.41 6.11 253.57 19.48"/><polygon class="cls-4" points="448.08 745.34 376.22 374.88 497.89 731.99 448.08 745.34"/><polygon class="cls-5" points="165.53 63.25 376.69 376 210.2 37.43 165.53 63.25"/><polygon class="cls-6" points="541.26 714.04 375.99 374.79 585.94 688.23 541.26 714.04"/><polygon class="cls-7" points="91.81 128.28 376.72 375.74 128.28 91.81 91.81 128.28"/><polygon class="cls-8" points="623.18 659.66 375.74 374.76 659.66 623.19 623.18 659.66"/><polygon class="cls-9" points="37.43 210.19 376.69 375.47 63.22 165.53 37.43 210.19"/><polygon class="cls-10" points="688.24 585.93 375.47 374.79 714.02 541.27 688.24 585.93"/><polygon class="cls-11" points="6.12 303.41 376.57 375.24 19.47 253.56 6.12 303.41"/><polygon class="cls-12" points="731.99 497.9 375.24 374.88 745.35 448.06 731.99 497.9"/><polygon class="cls-13" points="0 401.52 376.43 375.04 0 349.95 0 401.52"/><polygon class="cls-14" points="751.47 401.52 375.03 375.04 751.47 349.95 751.47 401.52"/><polygon class="cls-15" points="19.47 497.9 376.22 374.88 6.12 448.06 19.47 497.9"/><polygon class="cls-16" points="745.35 303.41 374.89 375.24 731.99 253.56 745.35 303.41"/><polygon class="cls-17" points="63.22 585.93 375.99 374.79 37.43 541.27 63.22 585.93"/><polygon class="cls-18" points="714.02 210.19 374.77 375.47 688.24 165.53 714.02 210.19"/><polygon class="cls-19" points="128.28 659.66 375.74 374.76 91.81 623.19 128.28 659.66"/><polygon class="cls-20" points="659.66 128.28 374.75 375.74 623.18 91.8 659.66 128.28"/><polygon class="cls-21" points="210.2 714.04 375.47 374.79 165.53 688.23 210.2 714.04"/><polygon class="cls-22" points="585.94 63.25 374.77 376 541.26 37.43 585.94 63.25"/><polygon class="cls-23" points="303.41 745.34 375.24 374.88 253.57 731.99 303.41 745.34"/><polygon class="cls-24" points="497.91 19.48 374.89 376.23 448.08 6.11 497.91 19.48"/></g></g></svg>